# xmcd
#
# Track frame offsets: 
#        150
#        16487
#        31952
#        47125
#        58912
#        75210
#        90130
#        100807
#        113965
#        129770
#        142820
#        158192
#        169127
#        185037
#        201395
#        213172
#        229432
#        241710
#        257047
#        268847
#
# Disc length: 3893 seconds
#
# Revision: 0
# Processed by: cddbd v1.5.2PL0 Copyright (c) Steve Scherf et al.
# Submitted via: ExactAudioCopy v0.99pb5
#
DISCID=0b0f3314
DTITLE=Brendan Shine - I Wanna Stay With You
DYEAR=1995
DGENRE=Oldies
TTITLE0=I Wanna Stay With You
TTITLE1=Lay Down Beside Me
TTITLE2=When The Lovin' Is Through
TTITLE3=Hello Darlin'
TTITLE4=One More Chance
TTITLE5=Saints And Sinners
TTITLE6=Drive Me To Drink
TTITLE7=Walking On New Grass
TTITLE8=Squeeze Box
TTITLE9=Shoe The Donkey
TTITLE10=It Doesn't Matter Anymore
TTITLE11=Some Broken Hearts Never Mend
TTITLE12=Dad
TTITLE13=I Still Can't Say Goodbye
TTITLE14=(There's) The Door
TTITLE15=If Tomorrow Never Comes
TTITLE16=Love Bug
TTITLE17=Rock 'n' Roll Kids
TTITLE18=Not Counting You
TTITLE19=When Two Lovers Meet
EXTD=
EXTT0=
EXTT1=
EXTT2=
EXTT3=
EXTT4=
EXTT5=
EXTT6=
EXTT7=
EXTT8=
EXTT9=
EXTT10=
EXTT11=
EXTT12=
EXTT13=
EXTT14=
EXTT15=
EXTT16=
EXTT17=
EXTT18=
EXTT19=
PLAYORDER=
